<svg xmlns="http://www.w3.org/2000/svg" xmlns:xlink="http://www.w3.org/1999/xlink" width="378" zoomAndPan="magnify" viewBox="0 0 283.5 283.499996" height="378" preserveAspectRatio="xMidYMid meet" version="1.0"><defs><clipPath id="id1"><path d="M 55.152344 49.808594 L 228.574219 49.808594 L 228.574219 233.558594 L 55.152344 233.558594 Z M 55.152344 49.808594 " clip-rule="nonzero"/></clipPath></defs><path fill="rgb(77.249146%, 94.898987%, 85.488892%)" d="M 75.367188 78.570312 L 123.417969 196.230469 C 123.417969 196.230469 126.363281 206.59375 125.664062 212.179688 C 124.964844 217.691406 114.101562 227.351562 114.101562 227.351562 C 117.417969 215.042969 99.523438 204.683594 99.523438 204.683594 C 101.914062 191.527344 84.570312 185.023438 84.570312 185.023438 C 83.800781 173.816406 74.261719 170.691406 74.261719 170.691406 C 74.890625 164.8125 74.8125 156.140625 74.8125 156.140625 C 71.316406 155.292969 67.449219 149.964844 67.449219 149.964844 C 66.050781 139.460938 59.535156 128.988281 59.535156 128.988281 C 66.273438 121.5625 57.066406 102.238281 57.066406 102.238281 C 68.777344 92.714844 60.234375 76.148438 60.234375 76.148438 C 56.074219 65.417969 55.632812 61.226562 55.632812 61.226562 C 71.058594 65.269531 75.292969 78.644531 75.367188 78.570312 Z M 227.253906 51.417969 C 227.253906 51.417969 215.542969 91.796875 227.03125 96.28125 C 227.03125 96.28125 219.558594 114.578125 227.511719 122.515625 C 227.511719 122.515625 219.703125 135.265625 222.355469 143.460938 C 222.355469 143.460938 217.714844 151.398438 213.335938 153.605469 L 213.335938 159.851562 L 214.878906 165.285156 L 211.273438 167.785156 C 211.273438 167.785156 203.90625 176.019531 204.828125 183.074219 C 204.828125 183.074219 184.796875 188.769531 189.105469 207.433594 C 189.105469 207.433594 173.382812 217.871094 176.328125 232.128906 L 165.945312 221.765625 L 195.035156 98.558594 L 209.726562 61.222656 L 227.253906 51.414062 " fill-opacity="1" fill-rule="nonzero"/><path fill="rgb(30.198669%, 40.779114%, 54.508972%)" d="M 225.375 122.664062 C 225.375 122.664062 213.445312 130.855469 221.582031 143.023438 C 221.582031 143.023438 219.191406 152.761719 206.558594 155.699219 L 205.492188 166.28125 C 205.492188 166.28125 195.585938 170.324219 196.25 178.664062 C 196.25 178.664062 178.171875 184.617188 182.515625 202.324219 C 182.515625 202.324219 166.316406 212.398438 165.945312 221.800781 C 165.945312 221.800781 156.003906 209.5625 155.160156 197.363281 C 154.3125 185.167969 154.089844 173.777344 146.320312 169.039062 L 145.03125 160.109375 L 144.40625 167.570312 L 141.09375 172.820312 L 141.09375 163.375 L 138.332031 156.46875 L 138.664062 164.183594 C 132.292969 169.070312 130.820312 196.230469 130.820312 196.230469 C 132.070312 205.671875 125.554688 212.175781 125.554688 212.175781 C 124.449219 207.070312 115.539062 204.203125 115.539062 204.203125 C 113.917969 190.609375 97.644531 185.023438 97.644531 185.023438 L 95.472656 180.136719 L 88.734375 172.085938 L 80.191406 169.296875 L 79.898438 166.722656 L 79.898438 156.800781 C 72.164062 156.027344 67.34375 150.003906 67.34375 150.003906 C 78.238281 135.304688 60.199219 129.203125 60.199219 129.203125 C 72.460938 117.445312 58.027344 102.972656 58.027344 102.972656 C 81.738281 92.683594 57.179688 62.292969 57.179688 62.292969 C 98.234375 67.730469 134.832031 131.707031 134.832031 131.707031 L 137.484375 135.96875 L 137.777344 143.351562 L 138.222656 137.695312 L 140.097656 132.441406 L 139.25 126.929688 L 142.34375 124.355469 C 143.742188 123.140625 145.621094 128.066406 145.878906 128.066406 L 144.886719 131.558594 L 145.511719 132.625 L 147.277344 135.339844 L 149.5625 140.195312 C 150.296875 135.5625 150.296875 132 148.566406 132.257812 C 148.566406 132.257812 154.164062 99.144531 225.558594 51.417969 C 225.558594 51.417969 206.339844 83.605469 226.554688 96.429688 C 226.554688 96.429688 212.304688 112.230469 225.375 122.664062 " fill-opacity="1" fill-rule="nonzero"/><path fill="rgb(77.249146%, 94.898987%, 85.488892%)" d="M 149.5625 140.042969 L 150.960938 145.707031 L 153.722656 146.882812 C 153.722656 146.882812 165.0625 148.058594 175.445312 149.710938 C 185.867188 151.363281 197.796875 149.414062 197.796875 149.414062 L 199.34375 148.308594 L 201.332031 142.429688 L 202.65625 137.910156 L 202.105469 131.589844 L 202.105469 128.324219 L 201.996094 124.171875 L 199.160156 117.484375 L 197.722656 116.601562 L 197.132812 114.730469 L 196.730469 111.640625 L 195.035156 108.808594 L 194.925781 107.523438 L 193.082031 104.441406 L 189.804688 101.425781 L 188.664062 99.003906 L 185.71875 95.070312 L 182.515625 94.183594 L 179.679688 91.691406 L 177.765625 89.667969 C 160.976562 102.164062 147.207031 132.183594 147.207031 132.183594 Z M 136.046875 133.429688 L 136.636719 140.851562 L 134.980469 147.542969 L 128.167969 147.542969 C 125.222656 150.078125 93.042969 152.609375 93.042969 152.609375 L 91.972656 149.78125 L 91.605469 141.511719 L 93.042969 136.703125 L 93.042969 134.386719 L 91.605469 131.082031 L 91.605469 124.867188 L 93.042969 119.945312 L 93.558594 116.785156 L 94.992188 114.433594 L 96.246094 107.125 L 100.074219 100.984375 L 104.492188 95.472656 L 107.992188 94.628906 C 111.855469 98.855469 133.285156 129.058594 133.285156 129.058594 L 136.046875 133.429688 " fill-opacity="1" fill-rule="nonzero"/><g clip-path="url(#id1)"><path fill="rgb(12.548828%, 18.818665%, 26.669312%)" d="M 223.3125 115.792969 C 223.902344 118.035156 225.300781 119.90625 226.113281 122.078125 C 226.074219 122.113281 226 122.152344 225.964844 122.1875 C 225.964844 122.152344 225.925781 122.152344 225.890625 122.113281 C 222.652344 118.332031 219.632812 114.617188 220.921875 109.25 C 221.839844 105.136719 223.792969 100.726562 226.441406 97.347656 C 226.628906 97.386719 226.8125 97.347656 226.957031 97.277344 C 224.898438 100.949219 223.351562 104.953125 222.871094 109.144531 C 222.613281 111.3125 222.761719 113.628906 223.3125 115.792969 Z M 220.957031 140.226562 C 220.441406 139.382812 219.960938 138.574219 219.703125 137.695312 C 218.933594 135.378906 219.632812 132.917969 220.625 130.746094 C 221.914062 127.957031 223.753906 125.863281 225.964844 123.875 C 223.828125 129.242188 220.773438 134.53125 220.957031 140.226562 Z M 215.210938 151.066406 C 212.5625 152.902344 209.394531 153.863281 206.300781 154.78125 C 205.34375 155.074219 205.566406 156.433594 206.339844 156.617188 C 206.191406 157.832031 206.042969 159.007812 205.859375 160.21875 C 203.871094 160.070312 201.738281 159.851562 199.75 160.035156 C 199.378906 160.109375 199.269531 160.585938 199.675781 160.660156 C 201.625 161.0625 203.761719 160.953125 205.75 160.953125 C 205.601562 162.019531 205.417969 163.082031 205.199219 164.152344 C 202.804688 162.824219 200.007812 162.570312 197.316406 162.3125 C 196.914062 162.242188 196.765625 163.007812 197.171875 163.082031 C 199.820312 163.488281 202.582031 163.632812 205.050781 164.8125 C 204.941406 165.214844 204.867188 165.621094 204.753906 166.019531 C 204.71875 166.132812 204.71875 166.246094 204.753906 166.355469 C 204.609375 166.390625 204.460938 166.429688 204.3125 166.464844 C 204.277344 166.355469 204.242188 166.28125 204.128906 166.246094 C 197.613281 164 190.875 162.679688 183.988281 162.128906 C 183.363281 162.058594 183.363281 163.121094 183.988281 163.121094 C 190.691406 163.527344 197.207031 164.777344 203.652344 166.722656 C 201.699219 167.457031 199.933594 168.746094 198.570312 170.398438 C 198.570312 170.355469 198.53125 170.355469 198.53125 170.324219 C 195.183594 168.007812 191.464844 165.914062 187.597656 164.734375 C 187.191406 164.59375 187.046875 165.214844 187.375 165.363281 C 191.167969 166.980469 194.742188 168.59375 198.3125 170.691406 L 198.347656 170.691406 C 197.871094 171.316406 197.429688 171.976562 197.097656 172.636719 C 195.699219 170.910156 193.894531 169.328125 191.796875 168.488281 C 191.425781 168.335938 191.242188 168.886719 191.5 169.039062 C 193.453125 170.140625 195.144531 171.347656 196.617188 173.082031 C 196.691406 173.152344 196.730469 173.152344 196.800781 173.1875 C 196.140625 174.65625 195.808594 176.277344 195.917969 177.890625 C 192.125 173.777344 188.296875 169 183.289062 166.28125 C 182.921875 166.0625 182.664062 166.574219 182.921875 166.832031 C 187.5625 170.246094 191.464844 174.183594 195.699219 178.113281 C 195.773438 178.148438 195.882812 178.113281 195.917969 178.074219 L 195.917969 178.222656 C 194.703125 178.515625 193.527344 178.960938 192.421875 179.542969 C 183.214844 170.171875 172.90625 161.027344 160.753906 155.660156 C 159.464844 155.074219 158.066406 154.488281 156.632812 153.9375 C 156.667969 153.820312 156.703125 153.679688 156.703125 153.570312 C 157.847656 153.972656 159.023438 154.558594 160.203125 154.671875 C 160.609375 154.742188 161.125 154.191406 160.679688 153.820312 C 159.28125 152.648438 157.21875 152.058594 155.230469 151.65625 C 155.269531 151.617188 155.34375 151.546875 155.378906 151.472656 C 155.746094 151.472656 156.078125 151.507812 156.445312 151.507812 C 157.664062 151.730469 158.839844 152.023438 160.054688 152.394531 C 160.753906 152.792969 161.308594 153.386719 162.007812 153.863281 C 162.226562 154.007812 162.558594 153.863281 162.484375 153.570312 C 162.449219 153.421875 162.410156 153.269531 162.375 153.128906 C 166.351562 154.488281 170.328125 156.140625 174.269531 156.945312 C 181.851562 158.566406 189.769531 158.640625 197.28125 156.652344 C 197.6875 156.507812 197.503906 155.808594 196.988281 155.957031 C 188.445312 157.722656 179.863281 157.019531 171.542969 154.558594 C 165.726562 152.871094 160.128906 149.710938 154.089844 149.117188 C 154.054688 148.933594 153.980469 148.792969 153.871094 148.644531 C 153.980469 148.644531 154.054688 148.644531 154.164062 148.679688 C 155.160156 148.75 156.003906 148.902344 156.960938 149.046875 C 157.21875 149.085938 157.40625 148.976562 157.515625 148.792969 C 158.289062 148.902344 159.0625 149.046875 159.835938 149.230469 C 161.453125 149.636719 162.925781 150.40625 164.472656 150.773438 C 164.878906 150.847656 165.394531 150.296875 164.953125 149.929688 C 164.179688 149.300781 163.257812 148.792969 162.265625 148.425781 C 162.375 148.425781 162.449219 148.382812 162.523438 148.351562 C 163.039062 148.425781 163.554688 148.535156 164.070312 148.609375 C 169.480469 149.527344 174.929688 150.371094 180.417969 150.773438 C 194.003906 151.800781 208.734375 150.296875 219.410156 141.074219 C 219.816406 141.847656 220.257812 142.613281 220.734375 143.421875 C 220.921875 143.757812 221.25 143.867188 221.546875 143.832031 C 219.667969 146.511719 217.972656 149.195312 215.210938 151.066406 Z M 186.566406 184.136719 C 186.273438 182.925781 185.460938 181.820312 184.835938 180.828125 C 183.988281 179.511719 183.070312 178.113281 181.964844 177.042969 C 181.816406 176.828125 181.484375 177.121094 181.59375 177.339844 C 182.367188 178.664062 183.363281 179.910156 184.136719 181.269531 C 184.800781 182.371094 185.277344 183.808594 186.085938 184.726562 C 185.351562 185.605469 184.6875 186.597656 184.097656 187.59375 C 182.554688 182.558594 180.160156 177.636719 176.625 173.703125 C 176.402344 173.480469 176 173.847656 176.21875 174.070312 C 179.3125 178.699219 181.964844 183.21875 183.582031 188.585938 C 183.179688 189.355469 182.847656 190.128906 182.515625 190.902344 C 178.097656 177.636719 168.414062 165.46875 156.117188 158.34375 C 156.078125 158.160156 155.96875 157.976562 155.746094 157.792969 C 155.527344 157.648438 155.34375 157.496094 155.121094 157.425781 C 155.195312 157.386719 155.269531 157.3125 155.34375 157.242188 C 155.820312 157.425781 156.261719 157.609375 156.742188 157.792969 C 158.289062 158.414062 159.835938 159.332031 161.453125 159.742188 C 161.859375 159.886719 162.375 159.265625 161.933594 158.898438 C 160.902344 158.046875 159.539062 157.351562 158.140625 156.761719 C 158.433594 156.652344 158.65625 156.394531 158.691406 156.101562 C 159.394531 156.394531 160.054688 156.730469 160.679688 157.019531 C 172.355469 162.386719 182.296875 171.164062 191.242188 180.207031 C 190.46875 180.6875 189.734375 181.195312 188.996094 181.789062 C 186.273438 178.480469 183.289062 175.390625 180.234375 172.417969 C 180.011719 172.125 179.679688 172.492188 179.863281 172.785156 C 182.773438 175.867188 185.535156 179.105469 188.371094 182.339844 C 187.707031 182.890625 187.117188 183.476562 186.566406 184.136719 Z M 174.785156 207.070312 C 175.777344 201.261719 174.34375 194.28125 172.28125 188.804688 C 172.207031 188.4375 171.652344 188.585938 171.726562 189.027344 C 172.5 191.820312 173.273438 194.609375 173.679688 197.480469 C 174.15625 200.785156 173.898438 204.050781 174.15625 207.359375 C 174.15625 207.4375 174.195312 207.511719 174.269531 207.542969 C 173.863281 207.949219 173.421875 208.355469 173.054688 208.796875 C 171.949219 195.015625 167.53125 181.636719 159.097656 170.542969 C 157.257812 168.121094 155.195312 165.695312 152.949219 163.449219 C 152.984375 163.417969 153.058594 163.375 153.097656 163.34375 C 153.464844 163.710938 153.796875 164.078125 154.164062 164.445312 C 155.160156 165.511719 156.117188 166.832031 157.476562 167.382812 C 157.699219 167.457031 157.882812 167.234375 157.847656 167.015625 C 157.441406 165.621094 156.003906 164.550781 155.046875 163.601562 C 154.679688 163.234375 154.273438 162.863281 153.90625 162.496094 C 154.496094 162.863281 155.085938 163.121094 155.746094 163.191406 C 156.152344 163.265625 156.519531 162.792969 156.375 162.347656 C 156.261719 162.089844 156.117188 161.835938 155.929688 161.578125 C 156.632812 162.203125 157.40625 162.792969 158.25 163.160156 C 158.65625 163.375 159.097656 162.753906 158.878906 162.386719 C 158.214844 161.394531 157.183594 160.621094 156.1875 159.925781 C 168.414062 167.234375 177.875 179.769531 181.742188 193.105469 C 181.265625 194.832031 181.007812 196.628906 180.96875 198.398438 C 180.085938 194.425781 178.246094 190.457031 176.734375 186.75 C 176.589844 186.339844 175.960938 186.457031 176.109375 186.890625 C 177.65625 191.710938 179.203125 196.558594 180.675781 201.445312 C 180.75 201.664062 181.007812 201.742188 181.191406 201.703125 C 181.191406 201.816406 181.226562 201.886719 181.226562 202 C 181.265625 202.109375 181.300781 202.183594 181.335938 202.253906 C 180.160156 202.917969 179.019531 203.652344 177.914062 204.417969 C 177.804688 201.664062 177.289062 198.765625 176.808594 196.007812 C 176.734375 195.640625 176.183594 195.863281 176.257812 196.230469 C 176.589844 199.132812 176.734375 202.140625 177.101562 205.046875 C 176.292969 205.707031 175.519531 206.367188 174.785156 207.070312 Z M 156.226562 197.179688 C 155.746094 191.085938 156.078125 185.421875 153.757812 179.695312 C 153.132812 178.113281 152.359375 176.570312 151.585938 175.023438 C 150.925781 172.234375 149.746094 169.183594 148.308594 166.683594 C 148.347656 166.722656 148.347656 166.722656 148.382812 166.757812 C 148.605469 166.941406 148.863281 166.980469 149.121094 166.941406 C 149.746094 167.714844 150.410156 168.488281 150.996094 169.253906 C 151.917969 170.582031 152.765625 172.050781 153.871094 173.265625 C 154.238281 173.664062 155.046875 173.265625 154.863281 172.710938 C 154.238281 171.023438 152.984375 169.480469 151.84375 168.082031 C 151.21875 167.273438 150.554688 166.316406 149.820312 165.511719 C 149.820312 165.4375 149.78125 165.285156 149.746094 165.144531 C 149.78125 165.144531 149.78125 165.101562 149.820312 165.101562 C 150.296875 165.582031 150.738281 166.0625 151.183594 166.539062 C 152.175781 167.640625 152.949219 169.070312 153.980469 170.03125 C 154.386719 170.398438 155.160156 170.03125 154.972656 169.480469 C 154.679688 168.671875 154.199219 167.9375 153.613281 167.234375 L 153.648438 167.234375 C 154.015625 167.492188 154.386719 167.347656 154.605469 167.089844 C 155.746094 168.410156 156.851562 169.738281 157.882812 171.058594 C 166.535156 182.371094 170.953125 196.121094 171.875 210.191406 C 171.507812 210.59375 171.175781 211 170.84375 211.441406 C 170.550781 206.335938 169.296875 201.589844 167.089844 196.964844 C 167.015625 196.742188 166.535156 196.964844 166.683594 197.253906 C 168.230469 202.140625 169.40625 206.703125 170.035156 211.808594 C 170.070312 211.992188 170.21875 212.101562 170.367188 212.101562 C 170.21875 212.320312 170.035156 212.503906 169.886719 212.726562 C 168.78125 209.492188 167.933594 206.257812 167.347656 202.917969 C 167.347656 202.507812 166.71875 202.550781 166.71875 202.992188 C 167.125 206.664062 167.898438 210.265625 169.1875 213.714844 C 168.820312 214.308594 168.414062 214.859375 168.082031 215.441406 C 167.125 214.015625 166.792969 211.550781 166.351562 210.042969 C 165.875 208.203125 165.285156 206.40625 164.730469 204.570312 C 164.511719 203.945312 163.738281 204.203125 163.886719 204.714844 C 164.585938 207.359375 165.359375 210.117188 166.058594 212.765625 C 166.425781 214.015625 166.460938 215.59375 167.566406 216.289062 C 167.199219 216.953125 166.867188 217.574219 166.535156 218.238281 C 165.027344 215.628906 163.664062 213.023438 162.597656 210.15625 C 162.375 209.605469 161.492188 209.789062 161.675781 210.375 C 162.742188 213.390625 163.996094 216.472656 165.800781 219.117188 C 165.875 219.226562 165.945312 219.269531 166.019531 219.300781 C 165.910156 219.527344 165.835938 219.746094 165.726562 219.964844 C 160.644531 213.347656 156.851562 205.964844 156.226562 197.179688 Z M 129.863281 194.757812 C 129.566406 198.066406 130.011719 201.703125 129.089844 204.898438 C 128.425781 207.101562 127.175781 209.089844 125.921875 211.035156 C 125.703125 210.523438 125.445312 210.007812 125.113281 209.53125 C 126.363281 206.957031 127.617188 204.460938 128.023438 201.589844 C 128.425781 198.507812 128.09375 195.34375 128.5 192.292969 C 128.574219 191.925781 128.023438 191.894531 127.949219 192.21875 C 127.320312 194.757812 127.320312 197.109375 127.101562 199.644531 C 126.84375 202.875 125.777344 205.597656 124.300781 208.503906 C 123.824219 207.949219 123.273438 207.398438 122.683594 206.886719 C 122.828125 206.886719 122.941406 206.808594 123.050781 206.664062 C 125.519531 203.175781 125.371094 198.140625 126.070312 194.058594 C 126.144531 193.765625 125.777344 193.582031 125.664062 193.839844 C 123.824219 197.773438 124.046875 202.183594 122.167969 206.074219 C 122.128906 206.183594 122.128906 206.296875 122.128906 206.367188 L 122.09375 206.335938 C 121.394531 205.78125 120.65625 205.121094 119.847656 204.644531 C 120.988281 202.765625 121.503906 200.746094 122.203125 198.652344 C 123.199219 195.640625 124.375 192.703125 125.554688 189.761719 C 125.777344 189.394531 125.1875 189.136719 125.003906 189.464844 C 123.75 191.851562 122.609375 194.242188 121.6875 196.671875 C 120.769531 199.132812 120.140625 201.816406 118.816406 204.128906 C 118.375 203.980469 117.933594 203.910156 117.492188 203.910156 C 117.601562 203.835938 117.710938 203.761719 117.75 203.613281 C 118.851562 199.425781 120.289062 195.273438 121.761719 191.230469 C 121.835938 190.863281 121.394531 190.679688 121.285156 190.933594 C 119.332031 194.941406 117.785156 198.984375 116.570312 203.242188 C 116.496094 203.578125 116.644531 203.796875 116.863281 203.910156 C 116.71875 203.910156 116.570312 203.910156 116.386719 203.945312 C 116.3125 202.84375 116.164062 201.773438 115.871094 200.710938 C 119.296875 189.578125 123.53125 178.992188 129.9375 169.183594 C 130.636719 168.121094 131.335938 167.089844 132.035156 166.097656 C 132.402344 166.132812 132.808594 165.988281 133.101562 165.546875 C 133.765625 164.703125 134.207031 163.742188 134.722656 162.824219 C 133.691406 164.996094 132.402344 167.199219 131.628906 169.4375 C 131.484375 169.847656 132.109375 170.140625 132.402344 169.804688 C 133.542969 168.121094 134.316406 166.097656 134.980469 164.152344 C 135.089844 164.226562 135.203125 164.292969 135.347656 164.367188 L 135.496094 164.367188 C 135.347656 164.777344 135.238281 165.144531 135.203125 165.546875 C 134.058594 168.121094 132.84375 170.65625 131.703125 173.265625 C 131.410156 173.886719 132.476562 174.183594 132.699219 173.554688 C 133.617188 171.277344 134.503906 168.960938 135.386719 166.683594 C 135.496094 166.90625 135.71875 167.050781 135.9375 167.125 C 136.011719 167.273438 136.121094 167.382812 136.269531 167.457031 C 132.585938 176.019531 130.5625 185.679688 129.863281 194.757812 Z M 114.839844 225.882812 C 114.691406 221.507812 113.699219 216.65625 111.085938 213.132812 C 108.285156 209.492188 103.644531 207.878906 100.296875 204.9375 C 100.257812 204.898438 100.222656 204.898438 100.183594 204.863281 C 100.40625 204.789062 100.589844 204.644531 100.628906 204.386719 C 102.027344 194.941406 94.109375 186.890625 85.417969 184.910156 C 85.308594 184.871094 85.199219 184.910156 85.125 184.910156 C 84.683594 178.738281 81.074219 172.160156 74.667969 170.507812 C 76.472656 165.949219 76.253906 161.136719 74.925781 156.507812 C 74.925781 156.507812 74.925781 156.46875 74.890625 156.46875 C 76.398438 157.097656 78.054688 157.464844 79.824219 157.570312 C 79.824219 161.46875 78.71875 165.511719 79.527344 169.328125 C 79.640625 169.847656 80.117188 169.921875 80.449219 169.695312 C 80.449219 169.878906 80.523438 170.105469 80.707031 170.171875 C 83.394531 170.796875 86.007812 171.757812 88.328125 173.226562 C 88.367188 173.410156 88.585938 173.59375 88.808594 173.554688 C 89.726562 174.183594 90.613281 174.878906 91.421875 175.726562 C 94.21875 178.515625 95.433594 181.679688 96.90625 185.238281 C 97.054688 185.605469 97.496094 185.789062 97.867188 185.71875 C 97.792969 185.941406 97.867188 186.273438 98.160156 186.339844 C 100.738281 187.078125 103.242188 188.144531 105.488281 189.503906 C 105.523438 189.871094 105.929688 190.054688 106.296875 190.015625 C 111.046875 193.210938 114.433594 197.957031 114.582031 204.164062 C 114.582031 204.9375 115.355469 205.15625 115.90625 204.9375 C 116.605469 205.265625 117.160156 205.082031 118.007812 205.339844 C 119.074219 205.632812 120.105469 206.664062 120.953125 207.359375 C 122.644531 208.753906 124.117188 210.226562 124.746094 212.398438 C 124.78125 212.46875 124.816406 212.542969 124.855469 212.613281 C 121.984375 217.429688 118.816406 221.984375 114.839844 225.882812 Z M 68.113281 150.222656 C 68.226562 150.1875 68.371094 150.148438 68.484375 150.039062 C 69.917969 148.679688 70.839844 147.097656 71.28125 145.410156 C 80.375 154.339844 94.808594 153.894531 106.554688 152.425781 C 112.925781 151.65625 119.183594 150.40625 125.480469 149.34375 C 126.21875 149.230469 126.953125 149.085938 127.691406 148.976562 C 127.765625 149.195312 127.875 149.414062 128.058594 149.636719 C 128.09375 149.671875 128.132812 149.710938 128.167969 149.746094 C 122.941406 150.628906 117.859375 152.609375 112.703125 153.894531 C 104.492188 155.917969 96.578125 155.917969 88.21875 155.589844 C 87.226562 155.515625 87.042969 157.203125 87.996094 157.351562 C 95.214844 158.457031 102.945312 157.832031 110.015625 156.25 C 113.625 155.476562 117.085938 154.339844 120.585938 153.238281 C 120.65625 153.269531 120.769531 153.3125 120.878906 153.3125 C 123.382812 153.015625 125.996094 152.136719 128.425781 151.289062 C 128.351562 151.433594 128.351562 151.585938 128.351562 151.730469 C 126.402344 152.242188 119.957031 155.441406 119.296875 155.773438 C 118.890625 155.992188 119.148438 156.761719 119.664062 156.546875 C 121.761719 155.773438 123.789062 154.78125 125.847656 153.894531 C 126.585938 153.570312 128.023438 153.199219 128.941406 152.609375 C 129.015625 152.648438 129.125 152.71875 129.238281 152.761719 C 128.390625 152.976562 127.691406 153.160156 127.359375 154.078125 C 127.324219 154.191406 127.324219 154.339844 127.359375 154.445312 C 126.070312 154.890625 124.855469 155.476562 123.859375 156.140625 C 123.492188 156.359375 123.714844 156.984375 124.15625 156.835938 C 125.335938 156.46875 126.476562 155.84375 127.582031 155.367188 C 127.726562 155.292969 127.875 155.257812 128.023438 155.183594 C 128.058594 155.183594 128.058594 155.222656 128.09375 155.222656 C 115.648438 160.476562 104.308594 169.550781 97.351562 180.796875 C 97.019531 180.023438 96.613281 179.289062 96.171875 178.59375 C 96.171875 178.554688 96.207031 178.554688 96.246094 178.515625 C 99.042969 174.257812 102.503906 170.613281 106.335938 167.234375 C 106.554688 167.089844 106.261719 166.683594 106.039062 166.867188 C 101.878906 169.738281 98.417969 173.480469 95.582031 177.707031 C 94.882812 176.71875 94.074219 175.800781 93.191406 174.992188 C 93.335938 175.023438 93.484375 174.992188 93.632812 174.878906 C 98.195312 171.023438 102.542969 167.125 107.4375 163.671875 C 107.660156 163.527344 107.511719 163.265625 107.292969 163.304688 C 101.953125 165.765625 97.351562 170.289062 92.933594 174.144531 C 92.785156 174.289062 92.746094 174.441406 92.785156 174.582031 C 91.972656 173.847656 91.054688 173.1875 90.132812 172.5625 C 92.160156 170.765625 94.550781 168.777344 97.054688 168.121094 C 97.277344 167.96875 97.128906 167.640625 96.910156 167.714844 C 94.148438 168.191406 91.679688 170.398438 89.46875 172.195312 C 88.699219 171.757812 87.925781 171.347656 87.113281 170.980469 C 90.6875 167.417969 95.839844 166.683594 100.257812 164.550781 C 100.480469 164.476562 100.332031 164.152344 100.113281 164.183594 C 95.289062 165.804688 90.097656 166.832031 86.378906 170.542969 C 86.339844 170.582031 86.339844 170.582031 86.339844 170.613281 C 84.90625 170.0625 83.394531 169.664062 81.921875 169.4375 C 84.464844 169.328125 86.746094 166.757812 88.773438 165.46875 C 93.59375 162.53125 98.675781 162.164062 104.199219 161.835938 C 104.492188 161.835938 104.492188 161.539062 104.199219 161.46875 C 99.929688 161.246094 95.582031 161.320312 91.570312 162.863281 C 87.777344 164.335938 84.90625 167.273438 81.113281 168.671875 C 80.890625 168.777344 80.746094 169.144531 80.964844 169.296875 L 80.78125 169.296875 C 80.816406 169.183594 80.855469 169.070312 80.816406 168.929688 C 80.671875 167.824219 80.632812 166.683594 80.632812 165.582031 L 80.671875 165.582031 C 85.457031 163.816406 90.132812 161.101562 95.324219 160.953125 C 95.546875 160.953125 95.621094 160.585938 95.324219 160.585938 C 90.058594 160.585938 85.675781 163.527344 80.632812 164.734375 C 80.671875 163.816406 80.707031 162.898438 80.746094 161.980469 C 83.101562 161.429688 85.492188 161.027344 87.851562 160.660156 C 88.070312 160.585938 87.996094 160.183594 87.777344 160.253906 C 85.421875 160.507812 83.0625 160.804688 80.78125 161.171875 L 80.78125 159.300781 C 80.816406 159.300781 80.816406 159.332031 80.855469 159.332031 C 81.554688 159.558594 82.328125 159.265625 83.027344 159.191406 C 83.875 159.117188 84.648438 159.117188 85.492188 159.117188 C 85.789062 159.117188 85.789062 158.710938 85.492188 158.640625 C 84.648438 158.566406 83.726562 158.488281 82.914062 158.488281 C 82.21875 158.488281 81.519531 158.34375 80.816406 158.710938 C 80.78125 158.230469 80.746094 157.753906 80.707031 157.28125 C 80.707031 157.242188 80.671875 157.242188 80.671875 157.203125 C 81 156.761719 80.746094 155.917969 80.007812 155.808594 C 75.367188 155.367188 71.171875 153.710938 68.113281 150.222656 Z M 62.261719 129.355469 C 64.46875 126.195312 65.683594 122.554688 65.90625 118.882812 C 75 117.925781 84.203125 118.179688 93.042969 119.90625 C 90.390625 124.394531 89.140625 130.929688 92.527344 135.265625 C 84.941406 134.867188 77.285156 135.082031 69.699219 135.96875 C 68.003906 133.0625 65.316406 130.601562 62.261719 129.355469 Z M 60.675781 128.066406 C 62.777344 124.132812 62.847656 119.875 61.929688 115.609375 C 61.375 113.074219 60.75 110.351562 59.757812 107.890625 C 59.132812 106.386719 58.210938 105.101562 57.472656 103.707031 C 57.585938 103.664062 57.730469 103.664062 57.84375 103.632812 C 65.316406 110.210938 66.898438 120.683594 60.566406 128.835938 C 60.457031 128.800781 60.347656 128.765625 60.234375 128.765625 C 60.125 128.726562 60.015625 128.765625 59.941406 128.800781 C 59.867188 128.691406 59.792969 128.617188 59.71875 128.507812 C 60.125 128.582031 60.492188 128.46875 60.675781 128.066406 Z M 63.917969 85.550781 C 62.628906 77.246094 57.4375 70.226562 56.148438 61.960938 C 56.371094 62.035156 56.554688 62.109375 56.773438 62.179688 C 56.738281 62.292969 56.738281 62.367188 56.8125 62.476562 C 60.234375 67.839844 64.027344 73.609375 66.125 79.820312 C 66.089844 80.039062 66.125 80.257812 66.3125 80.40625 C 66.566406 81.179688 66.789062 81.988281 66.972656 82.792969 C 68.816406 90.367188 66.421875 99.4375 58.542969 101.792969 C 62.480469 97.015625 64.949219 92.128906 63.917969 85.550781 Z M 101.21875 89.148438 C 103.058594 90.917969 104.824219 92.714844 106.519531 94.550781 C 106.113281 94.550781 105.671875 94.703125 105.265625 94.886719 C 105.007812 95.027344 104.679688 95.253906 104.421875 95.511719 C 98.269531 89.925781 91.644531 84.78125 85.050781 80.039062 C 78.019531 75.003906 70.289062 69.972656 61.820312 67.804688 C 61.746094 67.765625 61.636719 67.765625 61.558594 67.804688 C 60.347656 65.964844 59.09375 64.203125 57.84375 62.585938 C 74.007812 68.207031 88.84375 77.28125 101.21875 89.148438 Z M 131.410156 126.855469 C 131.300781 126.855469 131.1875 126.855469 131.117188 126.925781 C 126.511719 120.496094 121.800781 114.175781 116.71875 108.113281 C 113.21875 103.960938 109.316406 99.988281 105.230469 96.246094 C 105.378906 96.019531 105.523438 95.835938 105.78125 95.730469 C 106.296875 95.4375 106.886719 95.363281 107.402344 95.511719 C 116.238281 105.207031 123.714844 116.199219 131.410156 126.855469 Z M 144.921875 128.46875 C 144.921875 129.460938 144.703125 130.527344 144.148438 131.222656 C 144.003906 130.929688 143.746094 130.671875 143.304688 130.5625 C 141.683594 130.195312 141.460938 126.519531 142.824219 125.785156 C 143.046875 125.679688 143.15625 125.496094 143.191406 125.3125 C 144.261719 126.046875 144.921875 126.996094 144.921875 128.46875 Z M 141.058594 140.191406 C 140.945312 140.632812 140.871094 141.074219 140.761719 141.550781 L 139.070312 141.550781 C 139.105469 141.109375 139.179688 140.707031 139.253906 140.265625 C 139.839844 140.265625 140.46875 140.226562 141.058594 140.191406 Z M 140.285156 143.757812 L 138.882812 143.757812 C 138.882812 143.316406 138.921875 142.871094 138.957031 142.398438 L 140.542969 142.398438 C 140.46875 142.839844 140.394531 143.316406 140.285156 143.757812 Z M 139.839844 145.996094 C 139.546875 146.035156 139.214844 146.035156 138.921875 146.070312 C 138.882812 145.625 138.882812 145.1875 138.882812 144.707031 C 139.289062 144.675781 139.695312 144.636719 140.097656 144.566406 C 140.027344 145.042969 139.914062 145.519531 139.839844 145.996094 Z M 139.472656 148.199219 C 139.363281 148.199219 139.253906 148.199219 139.140625 148.238281 C 139.070312 147.796875 139.03125 147.390625 138.996094 146.988281 C 139.214844 146.953125 139.472656 146.914062 139.695312 146.878906 C 139.621094 147.320312 139.546875 147.757812 139.472656 148.199219 Z M 139.328125 149.378906 C 139.289062 149.269531 139.289062 149.15625 139.289062 149.085938 L 139.363281 149.085938 C 139.328125 149.195312 139.328125 149.300781 139.328125 149.378906 Z M 145.402344 158.160156 C 145.292969 158.269531 145.253906 158.414062 145.253906 158.597656 C 145.253906 158.636719 145.21875 158.636719 145.21875 158.671875 C 145.21875 158.527344 145.21875 158.34375 145.253906 158.199219 C 145.253906 158.160156 145.328125 158.160156 145.402344 158.160156 Z M 177.546875 90.660156 C 177.65625 90.734375 177.765625 90.804688 177.878906 90.804688 C 178.578125 90.878906 179.203125 91.171875 179.71875 91.578125 C 180.269531 91.980469 180.566406 92.570312 180.898438 93.121094 C 181.007812 93.265625 181.15625 93.375 181.300781 93.417969 C 181.300781 93.449219 181.339844 93.488281 181.339844 93.527344 C 180.859375 94 180.382812 94.519531 179.941406 94.996094 C 169.925781 105.652344 161.011719 117.410156 153.023438 129.570312 C 151.476562 131.925781 149.96875 134.234375 148.566406 136.664062 C 148.53125 136.589844 148.496094 136.550781 148.457031 136.480469 C 148.496094 136.441406 148.566406 136.40625 148.605469 136.367188 C 149.597656 135.046875 150.300781 133.5 151.144531 132.109375 C 151.917969 130.785156 152.914062 129.570312 153.464844 128.171875 C 153.574219 127.847656 153.464844 127.589844 153.246094 127.4375 C 153.316406 127.332031 153.390625 127.222656 153.464844 127.109375 C 154.089844 126.191406 155.234375 125.273438 155.492188 124.171875 C 155.5625 123.949219 155.34375 123.765625 155.121094 123.804688 C 154.019531 124.207031 153.28125 125.496094 152.65625 126.375 C 152.324219 126.855469 152.03125 127.332031 151.734375 127.847656 C 151.257812 128.355469 150.886719 128.90625 150.519531 129.535156 C 150.484375 129.5 150.484375 129.460938 150.445312 129.460938 C 152.066406 125.234375 154.164062 121.484375 156.449219 117.445312 C 156.632812 117.148438 156.300781 116.859375 156.078125 116.933594 C 162.191406 107.453125 169.410156 98.746094 177.546875 90.660156 Z M 180.675781 87.609375 C 187.671875 80.957031 194.777344 74.308594 202.214844 68.132812 C 209.433594 62.144531 217.203125 57.222656 225.300781 52.480469 C 222.355469 57.515625 219.59375 63.0625 218.011719 68.796875 C 204.058594 72.433594 192.199219 82.316406 182.222656 92.570312 L 182.148438 92.570312 C 181.855469 90.988281 180.234375 89.886719 178.722656 89.484375 C 179.386719 88.855469 180.011719 88.230469 180.675781 87.609375 Z M 221.363281 79.046875 C 220.882812 82.5 220.699219 86.285156 221.695312 89.558594 C 219.265625 85.550781 218.160156 80.738281 218.492188 75.8125 C 219.042969 66.921875 223.460938 59.242188 227.253906 51.378906 C 227.253906 51.339844 227.253906 51.339844 227.289062 51.304688 C 227.363281 51.269531 227.402344 51.230469 227.476562 51.195312 C 224.859375 60.378906 222.6875 69.640625 221.363281 79.046875 Z M 221.179688 102.894531 C 212.195312 103.632812 203.429688 105.652344 195.074219 108.738281 C 195.109375 106.09375 193.34375 102.710938 190.800781 101.574219 C 193.378906 99.664062 196.03125 97.859375 198.71875 96.132812 C 204.757812 92.273438 211.238281 88.75 218.34375 87.242188 C 219.742188 91.027344 222.0625 94.445312 225.449219 96.722656 C 223.792969 98.375 222.320312 100.539062 221.179688 102.894531 Z M 218.859375 110.902344 C 218.859375 111.164062 218.820312 111.378906 218.820312 111.636719 C 211.753906 111.347656 204.316406 112.816406 197.539062 114.6875 C 197.871094 113.074219 197.390625 111.054688 196.25 109.878906 C 204.058594 107.042969 212.195312 105.175781 220.550781 104.367188 C 219.632812 106.570312 219.007812 108.847656 218.859375 110.902344 Z M 219.042969 130.304688 C 218.96875 130.269531 218.894531 130.234375 218.785156 130.234375 C 213.335938 129.902344 207.8125 129.867188 202.363281 130.121094 C 204.019531 125.199219 202.398438 119.617188 198.867188 115.863281 C 198.828125 115.832031 198.792969 115.789062 198.71875 115.789062 C 205.160156 114.105469 212.195312 112.707031 218.894531 113.035156 C 219.300781 116.933594 221.472656 120.933594 224.601562 123.140625 C 222.171875 124.976562 220.292969 127.515625 219.042969 130.304688 Z M 202.511719 131.519531 C 207.8125 131.261719 213.152344 131.296875 218.492188 131.628906 C 217.347656 134.789062 217.71875 137.285156 218.859375 139.859375 C 213.300781 144.785156 206.523438 147.503906 199.378906 148.75 C 202.84375 143.789062 205.015625 137.214844 202.511719 131.519531 Z M 162.300781 146.953125 C 161.972656 146.730469 161.527344 146.65625 161.050781 146.621094 C 160.167969 146.511719 159.320312 146.402344 158.472656 146.289062 C 157.882812 146.179688 157.332031 146.070312 156.707031 145.960938 C 156.890625 145.8125 157.074219 145.625 157.257812 145.441406 C 157.332031 145.335938 157.367188 145.226562 157.40625 145.117188 C 158.066406 145.003906 158.769531 144.933594 159.429688 144.890625 C 160.535156 144.820312 161.675781 144.96875 162.746094 144.75 C 163.148438 144.675781 163.148438 144.050781 162.746094 143.898438 C 161.125 143.421875 159.097656 143.605469 157.257812 144.015625 C 157.035156 143.757812 156.742188 143.605469 156.410156 143.605469 C 157.773438 143.09375 159.097656 142.652344 160.5 142.285156 C 161.824219 141.878906 163.296875 141.664062 164.511719 141.035156 C 164.878906 140.816406 164.734375 140.265625 164.289062 140.265625 C 163.074219 140.226562 161.785156 140.523438 160.5 140.960938 C 160.5 140.851562 160.460938 140.777344 160.386719 140.707031 C 163.332031 139.492188 166.316406 138.460938 169.261719 137.542969 C 179.753906 134.164062 190.582031 132.253906 201.515625 131.628906 C 203.0625 137.835938 201.773438 143.164062 197.796875 148.351562 C 197.613281 148.605469 197.613281 148.859375 197.722656 149.042969 C 190.949219 150.035156 183.917969 149.851562 177.25 149.195312 C 172.207031 148.566406 167.308594 147.6875 162.300781 146.953125 Z M 161.640625 148.238281 L 161.675781 148.277344 C 161.640625 148.277344 161.601562 148.238281 161.566406 148.238281 C 161.601562 148.199219 161.640625 148.238281 161.640625 148.238281 Z M 151.808594 148.308594 C 151.84375 148.308594 151.882812 148.351562 151.917969 148.351562 C 151.882812 148.351562 151.808594 148.351562 151.773438 148.382812 C 151.773438 148.351562 151.773438 148.308594 151.808594 148.308594 Z M 152.988281 155.257812 L 152.949219 155.257812 C 152.582031 155.105469 152.214844 154.996094 151.882812 154.921875 C 152.507812 155.039062 153.171875 155.179688 153.761719 155.332031 C 154.089844 155.40625 154.386719 155.515625 154.71875 155.660156 C 154.128906 155.515625 153.539062 155.363281 152.988281 155.257812 Z M 153.613281 159.742188 L 153.761719 159.742188 C 153.90625 159.882812 154.089844 159.996094 154.238281 160.140625 C 154.054688 159.996094 153.832031 159.882812 153.613281 159.742188 Z M 168.96875 122.738281 C 164.84375 125.710938 160.683594 129.019531 156.890625 132.582031 C 166.90625 121.667969 177.839844 111.195312 189.734375 102.378906 C 190.839844 103.003906 191.871094 103.554688 192.679688 104.695312 C 193.671875 106.09375 193.929688 107.523438 194.003906 109.144531 C 185.132812 112.523438 176.734375 117.117188 168.96875 122.738281 Z M 150.960938 143.277344 C 151.070312 143.316406 151.21875 143.316406 151.367188 143.238281 C 152.066406 142.871094 152.691406 142.613281 153.316406 142.175781 C 153.355469 142.136719 153.429688 142.101562 153.464844 142.101562 C 153.539062 142.175781 153.613281 142.246094 153.722656 142.246094 C 152.800781 142.726562 151.917969 143.238281 151.035156 143.757812 C 151.035156 143.605469 151 143.460938 150.960938 143.277344 Z M 153.390625 138.503906 C 153.390625 138.613281 153.429688 138.722656 153.503906 138.796875 C 152.542969 139.640625 151.585938 140.449219 150.667969 141.328125 C 150.960938 140.960938 151.292969 140.59375 151.585938 140.226562 C 152.25 139.746094 152.839844 139.089844 153.390625 138.503906 Z M 151.84375 135.964844 C 151.882812 136 151.917969 136.039062 151.917969 136.074219 C 151.699219 136.296875 151.476562 136.550781 151.292969 136.773438 C 151.476562 136.480469 151.660156 136.222656 151.84375 135.964844 Z M 147.242188 158.34375 C 147.132812 158.304688 147.023438 158.34375 146.910156 158.382812 C 146.949219 158.304688 146.984375 158.269531 147.023438 158.199219 C 147.09375 158.269531 147.167969 158.304688 147.242188 158.34375 Z M 149.746094 159.8125 C 149.710938 159.8125 149.710938 159.773438 149.671875 159.773438 C 149.894531 159.882812 150.078125 159.996094 150.300781 160.109375 L 150.300781 160.179688 C 150.113281 160.066406 149.929688 159.957031 149.746094 159.8125 Z M 197.722656 116.566406 L 197.761719 116.566406 C 197.722656 116.597656 197.648438 116.675781 197.648438 116.707031 C 197.648438 116.78125 198.054688 117.261719 198.054688 117.261719 C 198.753906 118.511719 199.75 119.429688 200.300781 120.824219 C 201.554688 123.839844 201.554688 126.78125 200.855469 129.9375 C 200.816406 130.050781 200.816406 130.121094 200.855469 130.195312 C 189.992188 130.855469 179.203125 132.765625 168.820312 136.183594 C 167.164062 136.703125 165.503906 137.285156 163.847656 137.878906 C 163.738281 137.695312 163.515625 137.582031 163.296875 137.652344 C 161.050781 138.203125 158.65625 139.089844 156.410156 140.042969 C 156.523438 139.898438 156.632812 139.789062 156.707031 139.605469 C 156.742188 139.53125 156.742188 139.457031 156.742188 139.421875 C 159.355469 138.09375 162.117188 136.335938 163.773438 134.164062 C 164.070312 133.796875 163.480469 133.316406 163.148438 133.542969 C 161.601562 134.3125 160.277344 135.488281 158.804688 136.40625 C 158.511719 136.589844 158.179688 136.773438 157.882812 136.957031 C 169.667969 127.480469 183.03125 120.089844 197.648438 116.125 C 197.613281 116.199219 197.578125 116.308594 197.578125 116.414062 C 197.578125 116.414062 197.648438 116.566406 197.722656 116.566406 Z M 196.25 112.230469 C 196.65625 113.148438 196.546875 114.066406 196.289062 115.023438 C 183.03125 118.769531 170.808594 125.3125 159.871094 133.613281 C 158.988281 134.128906 158.140625 134.789062 157.292969 135.339844 C 156.300781 136.039062 155.34375 136.773438 154.386719 137.511719 C 154.71875 137.253906 155.011719 136.957031 155.304688 136.664062 C 155.785156 136.257812 156.300781 136.039062 156.410156 135.414062 C 156.449219 135.304688 156.410156 135.230469 156.410156 135.121094 C 159.578125 132.253906 163.589844 130.453125 166.316406 126.996094 C 166.464844 126.8125 166.425781 126.628906 166.277344 126.488281 C 167.199219 125.785156 168.121094 125.089844 169.078125 124.390625 C 176.992188 118.585938 185.609375 113.84375 194.742188 110.390625 C 195.367188 110.945312 195.917969 111.453125 196.25 112.230469 Z M 217.902344 85.917969 C 207.554688 88.160156 198.128906 94.183594 189.695312 100.691406 C 190.066406 98.886719 188.738281 96.574219 187.636719 95.328125 C 186.640625 94.183594 185.277344 93.234375 183.769531 92.792969 C 187.488281 89.082031 191.355469 85.585938 195.476562 82.355469 C 202.105469 77.136719 209.433594 72.582031 217.644531 70.265625 C 217.054688 72.765625 216.722656 75.261719 216.722656 77.796875 C 216.722656 80.554688 217.128906 83.308594 217.902344 85.917969 Z M 182.554688 94.078125 C 184.101562 94.519531 185.460938 95.144531 186.605469 96.464844 C 187.230469 97.234375 187.78125 98.152344 188.078125 99.039062 C 188.296875 99.734375 188.296875 100.507812 188.628906 101.207031 C 188.664062 101.242188 188.664062 101.277344 188.703125 101.316406 C 188.664062 101.390625 188.628906 101.460938 188.628906 101.5 C 186.789062 102.929688 185.019531 104.367188 183.289062 105.800781 C 173.164062 114.105469 163.703125 123.324219 154.789062 132.875 C 154.828125 132.691406 154.789062 132.507812 154.71875 132.324219 C 155.121094 131.847656 155.492188 131.445312 155.636719 131.261719 C 156.117188 130.710938 156.558594 130.085938 157.035156 129.425781 C 158.140625 127.957031 159.503906 126.488281 160.351562 124.867188 C 160.570312 124.464844 160.054688 124.023438 159.726562 124.390625 C 157.847656 126.152344 156.300781 128.507812 154.753906 130.5625 C 154.570312 130.824219 154.238281 131.191406 153.871094 131.589844 L 153.648438 131.589844 C 154.421875 130.34375 155.234375 129.089844 156.152344 127.914062 C 157.257812 126.375 158.804688 124.976562 159.796875 123.289062 C 159.945312 122.996094 159.652344 122.519531 159.320312 122.8125 C 159.171875 122.921875 159.023438 123.027344 158.839844 123.140625 C 160.019531 121.484375 161.199219 119.871094 162.375 118.253906 C 168.523438 109.878906 175.152344 101.609375 182.554688 94.078125 Z M 134.796875 152.609375 L 134.796875 152.6875 C 134.761719 152.6875 134.6875 152.71875 134.648438 152.71875 C 134.722656 152.6875 134.761719 152.648438 134.796875 152.609375 Z M 94.367188 151.914062 C 91.496094 146.839844 91.789062 141.992188 93.449219 136.703125 C 101.105469 137.175781 108.726562 138.320312 116.238281 140.226562 C 121.394531 141.511719 126.734375 143.054688 131.667969 145.226562 L 131.519531 145.226562 C 126.367188 143.644531 121.171875 142.871094 115.722656 142.949219 C 115.171875 142.949219 115.097656 143.867188 115.722656 143.867188 C 120.070312 143.789062 124.378906 144.234375 128.574219 145.226562 C 127.433594 145.300781 126.367188 145.519531 125.335938 145.996094 C 121.835938 145.996094 118.375 146.546875 114.949219 147.390625 C 114.25 147.542969 114.546875 148.566406 115.246094 148.460938 C 118.117188 147.910156 120.914062 147.320312 123.75 147.0625 C 123.382812 147.429688 123.382812 147.910156 123.640625 148.308594 C 119.628906 149.011719 115.613281 149.746094 111.601562 150.371094 C 106.296875 151.136719 100.296875 151.949219 94.367188 151.914062 Z M 118.117188 129.71875 C 121.503906 131.847656 124.929688 134.3125 128.058594 137.140625 C 127.210938 136.480469 126.328125 135.816406 125.371094 135.339844 C 125.078125 135.195312 124.746094 135.5625 125.003906 135.816406 C 125.851562 136.808594 127.027344 137.582031 128.167969 138.355469 C 128.648438 138.6875 129.164062 139.054688 129.640625 139.378906 C 129.570312 139.421875 129.496094 139.492188 129.421875 139.5625 C 127.726562 138.503906 126.070312 137.4375 124.339844 136.40625 C 122.460938 135.230469 120.546875 133.867188 118.300781 133.613281 C 118.082031 133.613281 118.007812 133.910156 118.15625 134.019531 C 121.875 136.152344 125.628906 138.277344 129.347656 140.484375 C 129.605469 141.074219 130.085938 141.511719 130.5625 141.917969 L 130.453125 141.917969 C 128.574219 140.890625 126.625 140.007812 124.671875 139.054688 C 123.050781 138.277344 121.503906 137.511719 119.699219 137.214844 C 119.222656 137.140625 119.074219 137.988281 119.554688 138.0625 C 122.941406 138.828125 126.144531 140.742188 129.273438 142.359375 C 129.238281 142.429688 129.164062 142.503906 129.164062 142.613281 C 129.164062 142.652344 129.128906 142.6875 129.128906 142.726562 C 125.003906 141.144531 120.730469 139.972656 116.535156 138.90625 C 109.28125 137.101562 101.84375 135.929688 94.40625 135.414062 C 93.152344 133.101562 91.9375 131.078125 91.9375 128.25 C 91.863281 125.234375 92.859375 122.8125 94.035156 120.128906 C 102.542969 121.925781 110.679688 125.050781 118.117188 129.71875 Z M 101.511719 98.152344 C 101.179688 98.558594 100.921875 99.113281 100.773438 99.664062 C 96.136719 95.46875 91.277344 91.503906 86.15625 87.9375 C 80.488281 84.007812 74.226562 80.371094 67.378906 79.269531 C 66.199219 75.851562 64.507812 72.542969 62.628906 69.421875 C 69.660156 71.441406 76.179688 75.484375 82.144531 79.597656 C 89.214844 84.484375 95.953125 89.957031 102.359375 95.765625 C 102.691406 96.0625 103.019531 96.355469 103.351562 96.683594 C 102.617188 97.015625 101.953125 97.492188 101.511719 98.152344 Z M 116.644531 112.707031 C 118.339844 115.167969 120.363281 117.410156 122.242188 119.6875 C 123.824219 121.636719 125.296875 123.765625 126.992188 125.679688 C 126.882812 125.824219 126.808594 126.007812 126.808594 126.191406 C 126.769531 126.519531 126.84375 126.855469 126.917969 127.179688 C 124.820312 124.722656 122.648438 122.261719 120.511719 119.832031 C 114.621094 113.257812 108.46875 106.71875 101.917969 100.691406 C 102.027344 99.988281 101.988281 99.367188 102.320312 98.703125 C 102.726562 98.007812 103.316406 97.566406 104.015625 97.308594 C 112.445312 105.101562 119.480469 113.585938 126.328125 122.773438 C 125.519531 121.742188 124.671875 120.71875 123.863281 119.6875 C 121.835938 117.117188 119.8125 114.433594 117.417969 112.117188 C 117.085938 111.820312 116.386719 112.230469 116.644531 112.707031 Z M 128.464844 125.710938 C 128.355469 125.566406 128.28125 125.417969 128.167969 125.273438 C 128.28125 125.417969 128.390625 125.601562 128.539062 125.75 C 128.5 125.710938 128.464844 125.710938 128.464844 125.710938 Z M 134.464844 144.890625 L 134.464844 145.003906 C 134.429688 144.96875 134.390625 144.96875 134.320312 144.933594 C 134.355469 144.933594 134.390625 144.933594 134.464844 144.890625 Z M 129.753906 136.222656 C 129.164062 135.671875 128.539062 135.121094 127.949219 134.570312 L 127.765625 134.386719 C 128.425781 134.972656 129.089844 135.597656 129.753906 136.222656 Z M 135.605469 140.007812 L 135.644531 140.042969 C 135.605469 140.113281 135.605469 140.191406 135.570312 140.300781 C 135.351562 140.042969 135.164062 139.789062 134.945312 139.5625 C 135.054688 139.605469 135.164062 139.605469 135.277344 139.605469 C 135.386719 139.714844 135.496094 139.859375 135.605469 140.007812 Z M 134.980469 142.285156 C 134.945312 142.359375 134.945312 142.429688 134.90625 142.503906 C 134.835938 142.398438 134.761719 142.320312 134.6875 142.214844 C 134.796875 142.285156 134.871094 142.320312 134.980469 142.285156 Z M 97.3125 107.121094 C 98.160156 105.0625 99.523438 103.519531 100.773438 101.683594 C 101.105469 101.976562 101.402344 102.269531 101.734375 102.5625 C 109.613281 109.953125 117.050781 117.851562 124.082031 126.007812 C 121.875 123.578125 119.515625 121.34375 116.609375 120.054688 C 116.128906 119.832031 115.910156 120.535156 116.238281 120.824219 C 119.039062 122.996094 121.503906 125.160156 123.898438 127.773438 C 125.222656 129.203125 126.550781 130.640625 127.949219 131.957031 C 127.839844 132.109375 127.800781 132.324219 127.875 132.550781 C 127.875 132.582031 127.910156 132.621094 127.910156 132.621094 C 124.339844 129.5 120.511719 126.671875 116.644531 124.132812 C 110.238281 119.871094 103.390625 116.457031 96.246094 113.953125 C 96.136719 111.605469 96.394531 109.328125 97.3125 107.121094 Z M 94.292969 118.769531 C 94.292969 117.996094 94.222656 117.332031 94.589844 116.640625 C 94.847656 116.085938 95.253906 115.679688 95.507812 115.207031 C 102.875 117.777344 109.945312 121.34375 116.535156 125.75 C 118.855469 127.296875 121.171875 128.984375 123.417969 130.746094 C 123.199219 130.824219 123.050781 131.152344 123.273438 131.335938 C 123.417969 131.519531 123.605469 131.703125 123.789062 131.886719 C 122.167969 130.671875 120.511719 129.570312 118.855469 128.539062 C 111.230469 123.765625 102.910156 120.566406 94.292969 118.769531 Z M 69.035156 87.3125 C 68.925781 85.109375 68.484375 82.90625 67.859375 80.738281 C 80.117188 83.054688 91.054688 92.640625 100.039062 101.023438 C 96.355469 103.59375 94.808594 109.066406 94.699219 113.402344 C 84.832031 110.136719 74.449219 108.625 63.917969 109.066406 C 62.847656 106.902344 61.304688 104.917969 59.351562 103.226562 C 65.941406 101.164062 69.402344 94.152344 69.035156 87.3125 Z M 65.90625 117.484375 C 65.871094 115.054688 65.425781 112.667969 64.507812 110.429688 C 74.707031 110.0625 84.722656 111.566406 94.222656 114.726562 C 93.777344 115.128906 93.484375 115.71875 93.300781 116.199219 C 93.007812 116.824219 92.820312 117.699219 92.894531 118.476562 C 84.058594 116.824219 74.925781 116.566406 65.90625 117.484375 Z M 70.363281 137.328125 C 77.503906 136.519531 84.722656 136.296875 91.863281 136.625 C 89.472656 141.292969 90.132812 147.320312 92.527344 151.875 C 84.609375 151.582031 76.953125 149.5625 71.539062 143.714844 C 71.761719 141.585938 71.316406 139.378906 70.363281 137.328125 Z M 104.421875 187.371094 C 106.667969 182.964844 108.324219 178.222656 111.085938 174.105469 C 111.230469 173.8125 110.863281 173.628906 110.679688 173.8125 C 107.625 177.671875 105.5625 182.414062 103.464844 186.933594 C 102.726562 186.636719 101.953125 186.378906 101.21875 186.125 C 101.289062 186.085938 101.363281 186.046875 101.4375 185.972656 C 105.15625 181.085938 108.25 175.539062 112.042969 170.652344 C 112.335938 170.285156 111.746094 169.804688 111.488281 170.171875 C 107.441406 174.734375 103.019531 179.984375 100.703125 185.644531 C 100.628906 185.789062 100.664062 185.902344 100.703125 185.972656 C 99.929688 185.789062 99.15625 185.605469 98.382812 185.496094 C 98.492188 185.386719 98.527344 185.203125 98.492188 185.019531 C 98.492188 184.910156 98.457031 184.800781 98.457031 184.726562 C 98.566406 184.800781 98.75 184.800781 98.859375 184.617188 C 100.8125 181.675781 102.726562 178.738281 104.972656 175.941406 C 105.265625 175.652344 104.824219 175.171875 104.492188 175.539062 C 102.136719 178.257812 99.964844 181.011719 98.417969 184.285156 C 98.308594 183.65625 98.160156 183.03125 98.011719 182.449219 C 105.265625 170.171875 117.785156 160.402344 131.335938 155.40625 C 131.300781 155.441406 131.300781 155.472656 131.261719 155.515625 C 128.355469 156.464844 125.222656 157.863281 122.941406 159.882812 C 122.648438 160.179688 123.015625 160.585938 123.347656 160.433594 C 126.035156 159.078125 128.464844 157.570312 131.1875 156.394531 C 131.226562 156.507812 131.300781 156.617188 131.410156 156.691406 C 129.199219 157.9375 127.101562 159.40625 125.113281 161.027344 C 124.449219 161.503906 123.789062 161.976562 123.160156 162.457031 C 123.050781 162.570312 123.015625 162.679688 123.050781 162.789062 C 115.355469 169.695312 109.539062 178.992188 106.078125 188.25 C 105.453125 187.882812 104.9375 187.625 104.421875 187.371094 Z M 114.582031 197.148438 C 115.835938 191.523438 117.050781 185.828125 120.363281 181.050781 C 120.730469 180.683594 120.070312 180.351562 119.8125 180.683594 C 116.460938 185.128906 114.878906 190.273438 113.734375 195.601562 C 113.257812 194.832031 112.742188 194.097656 112.191406 193.4375 C 112.300781 193.4375 112.410156 193.363281 112.484375 193.25 C 114.25 187.148438 117.308594 181.714844 120.953125 176.53125 C 121.246094 176.164062 120.585938 175.683594 120.328125 176.050781 C 115.980469 180.941406 113.40625 186.75 111.859375 193.066406 C 111.046875 192.109375 110.128906 191.230469 109.171875 190.421875 C 109.832031 187.257812 112.042969 184.359375 113.773438 181.746094 C 115.796875 178.738281 117.898438 175.796875 120.144531 172.929688 C 120.511719 172.5625 119.921875 172.160156 119.664062 172.449219 C 117.269531 175.246094 114.949219 178.113281 112.851562 181.195312 C 111.085938 183.808594 108.949219 186.5625 108.175781 189.6875 C 107.84375 189.464844 107.550781 189.246094 107.21875 189.027344 C 110.972656 178.773438 117.785156 168.335938 126.84375 161.355469 C 128.980469 160.066406 131.078125 158.671875 133.140625 157.3125 C 133.214844 157.277344 133.289062 157.242188 133.324219 157.203125 C 133.289062 157.242188 133.289062 157.242188 133.25 157.277344 C 133.03125 157.496094 132.917969 157.679688 132.847656 157.976562 C 131.519531 159.003906 130.230469 160.140625 128.980469 161.285156 C 127.726562 162.457031 126.035156 163.816406 125.335938 165.394531 C 125.261719 165.621094 125.554688 165.804688 125.703125 165.691406 C 127.175781 164.773438 128.355469 163.121094 129.640625 161.90625 C 130.414062 161.136719 131.226562 160.433594 132.035156 159.699219 C 132.074219 159.996094 132.257812 160.21875 132.515625 160.367188 C 132.441406 160.550781 132.332031 160.734375 132.257812 160.917969 C 132.183594 160.917969 132.109375 160.953125 132.074219 160.984375 C 131.519531 161.761719 130.96875 162.457031 130.378906 163.230469 C 129.828125 163.925781 129.128906 164.703125 128.683594 165.46875 C 128.539062 165.835938 128.90625 166.171875 129.164062 165.878906 C 129.789062 165.253906 130.230469 164.40625 130.710938 163.632812 C 131.152344 162.972656 131.59375 162.3125 132.035156 161.6875 L 132.035156 161.761719 C 132.035156 162.128906 132.257812 162.386719 132.441406 162.53125 C 132.035156 163.230469 131.59375 163.855469 131.261719 164.628906 C 131.152344 164.917969 131.117188 165.179688 131.1875 165.394531 C 130.96875 165.652344 130.785156 165.945312 130.5625 166.203125 C 129.789062 167.273438 128.722656 168.300781 128.390625 169.511719 C 128.28125 169.804688 128.539062 170.027344 128.757812 170.027344 C 122.941406 179.105469 118.082031 189.320312 115.652344 199.792969 C 115.355469 198.800781 114.988281 197.957031 114.582031 197.148438 Z M 228.027344 94.519531 C 220.257812 90.324219 223.054688 79.414062 224.160156 72.398438 C 225.339844 65.195312 226.738281 58.066406 228.359375 50.902344 C 228.46875 50.496094 227.992188 50.3125 227.734375 50.496094 C 227.660156 50.019531 227.144531 49.613281 226.628906 49.90625 C 218.085938 54.867188 209.652344 59.792969 201.957031 66.074219 C 194.1875 72.433594 186.824219 79.453125 179.570312 86.433594 C 165.835938 99.738281 154.460938 115.421875 146.542969 132.84375 C 146.507812 132.988281 146.617188 133.171875 146.765625 133.210938 C 146.726562 133.394531 146.691406 133.578125 146.691406 133.792969 C 146.285156 133.242188 145.84375 132.730469 145.402344 132.214844 C 145.105469 131.921875 144.703125 132.214844 144.921875 132.582031 C 145.363281 133.316406 145.808594 134.050781 146.210938 134.785156 C 146.175781 134.753906 146.101562 134.710938 146.027344 134.679688 C 145.808594 134.601562 145.621094 134.601562 145.402344 134.679688 C 144.921875 134.894531 145.035156 135.597656 145.621094 135.519531 L 145.917969 135.519531 C 146.25 135.488281 146.394531 135.195312 146.320312 134.9375 C 146.617188 135.414062 146.875 135.929688 147.167969 136.4375 C 146.910156 136.367188 146.652344 136.332031 146.359375 136.4375 C 146.136719 136.515625 146.136719 136.808594 146.285156 136.917969 C 146.578125 137.214844 146.910156 137.214844 147.28125 137.214844 C 147.390625 137.25 147.5 137.214844 147.574219 137.175781 C 147.683594 137.398438 147.796875 137.652344 147.90625 137.875 C 147.867188 138.058594 147.941406 138.242188 148.089844 138.386719 C 147.757812 138.242188 147.351562 138.203125 146.984375 138.242188 C 146.835938 138.316406 146.765625 138.386719 146.765625 138.539062 L 146.765625 138.609375 C 146.835938 138.753906 146.910156 138.828125 147.058594 138.828125 C 147.351562 138.828125 147.609375 138.828125 147.90625 138.976562 C 148.164062 139.089844 148.3125 138.9375 148.3125 138.753906 C 148.457031 139.121094 148.640625 139.488281 148.789062 139.855469 C 148.753906 140.082031 148.863281 140.296875 149.011719 140.480469 C 149.011719 140.523438 149.046875 140.523438 149.046875 140.558594 L 149.046875 140.523438 C 148.753906 140.375 148.496094 140.296875 148.125 140.296875 C 147.574219 140.296875 147.574219 141.214844 148.125 141.144531 L 148.824219 141.144531 C 149.011719 141.144531 149.121094 141.03125 149.15625 140.890625 C 149.195312 140.960938 149.195312 141.03125 149.230469 141.074219 C 149.195312 141.292969 149.304688 141.511719 149.414062 141.695312 C 149.488281 141.917969 149.527344 142.136719 149.597656 142.359375 C 149.230469 142.359375 148.753906 142.285156 148.421875 142.503906 C 148.125 142.652344 148.199219 142.980469 148.496094 143.128906 C 148.863281 143.277344 149.339844 143.128906 149.671875 143.054688 C 149.710938 143.054688 149.746094 143.019531 149.785156 142.980469 C 149.855469 143.277344 149.894531 143.570312 149.96875 143.867188 C 149.597656 143.789062 148.863281 143.53125 148.714844 144.082031 C 148.566406 144.632812 149.488281 144.488281 149.785156 144.5625 C 149.894531 144.5625 149.96875 144.5625 150.042969 144.523438 C 149.929688 144.746094 150.003906 145 150.152344 145.226562 L 150.152344 145.441406 L 149.636719 145.441406 C 149.269531 145.441406 148.863281 145.367188 148.566406 145.59375 C 148.273438 145.734375 148.273438 146.070312 148.566406 146.21875 C 148.9375 146.4375 149.339844 146.359375 149.671875 146.359375 L 150.113281 146.359375 C 150.003906 146.585938 150.042969 146.804688 150.152344 147.023438 L 150.152344 147.136719 C 149.894531 147.171875 149.636719 147.207031 149.304688 147.246094 L 147.980469 147.246094 C 147.5 147.320312 147.351562 147.941406 147.832031 148.015625 C 148.496094 148.125 149.304688 148.199219 150.042969 148.089844 C 150.003906 148.492188 149.929688 148.933594 149.855469 149.339844 C 149.785156 149.410156 149.671875 149.484375 149.636719 149.5625 C 149.378906 149.523438 149.082031 149.484375 148.824219 149.523438 C 148.679688 149.523438 148.457031 149.59375 148.457031 149.816406 L 148.457031 150.035156 C 148.53125 150.1875 148.679688 150.328125 148.824219 150.328125 C 149.011719 150.371094 149.195312 150.328125 149.378906 150.328125 C 149.378906 150.511719 149.414062 150.695312 149.488281 150.847656 C 149.453125 150.992188 149.414062 151.105469 149.378906 151.246094 C 148.863281 151.214844 148.199219 151.105469 147.796875 151.398438 C 147.648438 151.546875 147.722656 151.796875 147.867188 151.871094 C 148.164062 152.023438 148.421875 152.023438 148.789062 151.949219 C 148.898438 151.949219 149.046875 151.949219 149.15625 151.914062 C 149.011719 152.238281 148.898438 152.605469 148.714844 152.941406 C 148.421875 152.789062 147.90625 152.902344 147.574219 152.902344 C 147.167969 152.902344 147.09375 153.527344 147.574219 153.527344 C 147.796875 153.527344 148.125 153.566406 148.421875 153.527344 C 148.273438 153.820312 148.125 154.117188 147.980469 154.410156 L 147.390625 154.410156 C 147.023438 154.410156 146.765625 154.335938 146.46875 154.484375 C 146.175781 154.628906 146.320312 154.890625 146.542969 155.035156 C 146.835938 155.179688 147.167969 155.105469 147.464844 155.105469 L 147.609375 155.105469 C 147.425781 155.441406 147.242188 155.730469 147.058594 156.066406 C 146.726562 156.023438 146.359375 155.992188 146.027344 155.953125 C 145.550781 155.953125 145.550781 156.726562 146.027344 156.726562 L 146.652344 156.726562 C 146.507812 156.941406 146.394531 157.125 146.25 157.351562 L 145.363281 157.351562 C 145.4375 155.515625 145.476562 153.710938 145.550781 151.871094 C 145.550781 151.179688 144.480469 151.179688 144.445312 151.871094 C 144.332031 153.675781 144.1875 155.515625 144.039062 157.308594 C 143.855469 157.308594 143.671875 157.351562 143.523438 157.382812 C 143.230469 157.460938 143.230469 157.863281 143.523438 158.011719 C 143.671875 158.046875 143.820312 158.085938 144.003906 158.117188 C 143.78125 161.320312 143.523438 164.515625 143.339844 167.671875 C 143.007812 166.019531 142.75 164.40625 142.53125 162.753906 C 142.933594 162.605469 142.898438 161.945312 142.457031 161.945312 L 142.417969 161.945312 C 142.382812 161.609375 142.308594 161.28125 142.273438 160.953125 C 142.417969 160.953125 142.566406 160.914062 142.75 160.875 C 143.15625 160.730469 143.117188 160.179688 142.675781 160.179688 C 142.53125 160.179688 142.34375 160.140625 142.160156 160.140625 C 141.941406 158.636719 141.757812 157.09375 141.535156 155.546875 L 141.535156 155.472656 C 141.609375 154.8125 141.644531 154.152344 141.683594 153.453125 C 141.71875 153.453125 141.792969 153.453125 141.832031 153.417969 C 142.273438 153.34375 142.125 152.683594 141.71875 152.648438 C 141.757812 152.023438 141.757812 151.398438 141.757812 150.808594 C 141.941406 150.738281 142.125 150.695312 142.308594 150.625 C 142.675781 150.402344 142.675781 149.777344 142.234375 149.851562 C 142.050781 149.890625 141.902344 149.890625 141.757812 149.929688 L 141.757812 148.675781 C 142.015625 148.605469 142.308594 148.53125 142.601562 148.457031 C 142.898438 148.308594 142.898438 147.832031 142.53125 147.90625 C 142.273438 147.941406 142.015625 147.941406 141.757812 147.980469 L 141.757812 146.4375 C 142.085938 146.359375 142.417969 146.285156 142.714844 146.21875 C 143.007812 146.144531 143.007812 145.667969 142.714844 145.734375 C 142.417969 145.777344 142.085938 145.808594 141.757812 145.808594 C 141.757812 145.296875 141.792969 144.785156 141.792969 144.265625 C 142.34375 144.15625 142.859375 144.050781 143.414062 143.898438 C 143.707031 143.828125 143.632812 143.421875 143.339844 143.5 C 142.824219 143.570312 142.34375 143.644531 141.832031 143.683594 C 141.867188 143.238281 141.867188 142.835938 141.902344 142.394531 C 142.566406 142.359375 143.230469 142.320312 143.890625 142.246094 C 144.296875 142.175781 144.296875 141.550781 143.890625 141.550781 C 143.265625 141.511719 142.601562 141.511719 141.976562 141.511719 C 142.015625 141.03125 142.085938 140.558594 142.160156 140.082031 C 142.789062 140.007812 143.375 139.898438 143.929688 139.746094 C 144.222656 139.746094 144.222656 139.378906 143.929688 139.347656 C 143.375 139.273438 142.824219 139.273438 142.273438 139.273438 C 142.273438 139.195312 142.273438 139.121094 142.308594 139.089844 C 142.382812 138.609375 141.609375 138.316406 141.535156 138.867188 C 141.5 139.011719 141.460938 139.121094 141.460938 139.273438 L 139.621094 139.273438 C 139.695312 138.976562 139.769531 138.683594 139.84375 138.386719 C 141.316406 138.355469 142.859375 138.203125 144.1875 137.726562 C 144.40625 137.582031 144.40625 137.25 144.113281 137.25 C 142.75 137.285156 141.425781 137.398438 140.0625 137.46875 C 140.136719 137.175781 140.246094 136.882812 140.355469 136.589844 C 141.351562 136.480469 142.34375 136.296875 143.339844 136.070312 C 143.707031 135.929688 143.5625 135.449219 143.191406 135.519531 C 142.34375 135.671875 141.460938 135.746094 140.613281 135.78125 C 140.652344 135.519531 140.46875 135.304688 140.246094 135.304688 C 140.285156 135.195312 140.355469 135.078125 140.429688 134.96875 C 140.835938 134.9375 141.242188 134.863281 141.644531 134.710938 C 141.867188 134.644531 141.867188 134.234375 141.574219 134.234375 C 141.316406 134.273438 141.058594 134.273438 140.800781 134.273438 C 141.019531 133.945312 141.203125 133.578125 141.425781 133.28125 C 141.460938 133.242188 141.5 133.210938 141.5 133.132812 C 141.644531 133.171875 141.792969 133.210938 141.941406 133.210938 C 142.457031 133.28125 142.933594 133.242188 143.375 133.171875 C 143.449219 133.171875 143.5625 133.132812 143.632812 133.097656 C 146.984375 131.996094 147.023438 125.894531 144.078125 124.355469 C 145.585938 116.453125 149.046875 107.082031 155.011719 101.683594 C 160.535156 96.648438 167.015625 93.230469 169.59375 85.734375 C 171.472656 80.332031 171.617188 72.871094 166.351562 69.34375 C 162.300781 66.625 155.75 68.355469 155.894531 73.902344 C 155.894531 75.003906 157.441406 74.894531 157.589844 73.902344 C 158.363281 68.023438 165.320312 68.574219 167.898438 72.726562 C 169.777344 75.738281 169.738281 79.851562 168.96875 83.234375 C 167.421875 89.882812 162.855469 93.816406 157.808594 97.855469 C 153.390625 101.425781 150.078125 105.429688 147.867188 110.613281 C 146.027344 114.835938 144.078125 119.535156 143.488281 124.171875 C 143.191406 124.097656 142.859375 124.054688 142.53125 124.054688 C 142.417969 124.054688 142.308594 124.097656 142.234375 124.171875 L 142.160156 124.171875 C 140.984375 118.105469 136.160156 113.585938 131.003906 110.71875 C 127.839844 108.878906 124.007812 107.929688 121.246094 105.46875 C 117.527344 102.125 117.75 96.246094 122.316406 93.707031 C 123.382812 93.15625 122.390625 91.539062 121.394531 92.160156 C 116.054688 95.394531 115.28125 102.816406 120.402344 106.644531 C 123.972656 109.289062 128.613281 110.132812 132.332031 112.59375 C 136.710938 115.460938 139.769531 119.210938 141.351562 124.128906 C 139.621094 124.3125 138.589844 126.226562 138.332031 127.914062 C 138.074219 129.902344 138.480469 131.589844 139.84375 132.546875 C 139.804688 132.546875 139.769531 132.582031 139.730469 132.621094 C 139.214844 133.316406 138.773438 134.050781 138.296875 134.785156 C 132.074219 125.96875 125.59375 117.371094 119.148438 108.738281 C 113.550781 101.164062 107.734375 93.816406 100.921875 87.3125 C 88.035156 75.078125 72.605469 66.113281 55.925781 60.5625 C 55.523438 60.417969 55.226562 60.710938 55.191406 61.039062 C 55.15625 61.078125 55.15625 61.152344 55.15625 61.222656 C 55.523438 67.949219 58.800781 73.828125 60.824219 80.039062 C 62.003906 83.675781 62.925781 87.792969 62.148438 91.652344 C 61.304688 95.691406 58.726562 98.851562 56.039062 101.867188 C 55.632812 102.34375 55.816406 102.929688 56.222656 103.226562 C 56.222656 103.261719 56.257812 103.335938 56.296875 103.367188 C 56.371094 104.4375 56.847656 105.0625 57.402344 106.125 C 58.46875 108.144531 59.019531 110.167969 59.574219 112.410156 C 60.75 117.371094 61.671875 122.402344 59.09375 127.109375 C 58.949219 127.402344 58.949219 127.660156 59.058594 127.914062 C 58.949219 127.953125 58.835938 128.097656 58.875 128.324219 C 59.277344 131.261719 61.265625 133.652344 62.589844 136.296875 C 64.214844 139.601562 65.058594 143.164062 65.167969 146.878906 C 65.242188 148.054688 67.121094 148.054688 67.046875 146.878906 C 66.789062 140.773438 64.46875 135.597656 61.191406 130.636719 C 61.265625 130.601562 61.339844 130.527344 61.414062 130.453125 C 64.136719 131.957031 66.570312 133.652344 68.261719 136.480469 C 68.371094 136.664062 68.484375 136.882812 68.59375 137.066406 C 68.632812 137.175781 68.667969 137.25 68.742188 137.324219 C 70.765625 141.257812 70.617188 145.59375 67.269531 148.933594 C 67.046875 149.15625 67.011719 149.449219 67.082031 149.667969 C 66.9375 149.777344 66.863281 149.929688 67.011719 150.113281 C 68.960938 152.757812 71.429688 154.996094 74.339844 156.28125 C 74.15625 156.359375 74.007812 156.503906 74.078125 156.757812 C 74.632812 159.332031 74.707031 162.160156 74.449219 164.734375 C 74.226562 166.753906 73.269531 168.773438 73.675781 170.761719 C 73.675781 170.796875 73.710938 170.835938 73.710938 170.871094 C 73.710938 171.019531 73.75 171.203125 73.933594 171.3125 C 76.511719 173.152344 79.273438 174.328125 81.152344 177.121094 C 82.769531 179.65625 82.695312 182.519531 83.726562 185.167969 C 83.910156 185.570312 84.390625 185.71875 84.683594 185.570312 C 84.722656 185.675781 84.832031 185.789062 84.980469 185.859375 C 93.335938 189.09375 99.15625 194.902344 98.933594 204.199219 C 98.933594 204.566406 99.230469 204.824219 99.558594 204.894531 C 99.375 205.046875 99.265625 205.304688 99.523438 205.519531 C 102.175781 208.167969 105.710938 209.855469 108.433594 212.5 C 112.300781 216.285156 113.074219 222.238281 113.074219 227.421875 C 113.074219 227.71875 113.183594 227.902344 113.332031 228.042969 C 113.589844 228.378906 114.066406 228.527344 114.472656 228.195312 C 118.964844 224.1875 122.390625 219.375 125.554688 214.339844 C 128.425781 209.710938 130.820312 205.886719 131.042969 200.34375 C 131.335938 193.6875 131.816406 187.039062 133.363281 180.535156 C 134.835938 174.511719 137.117188 168.925781 139.472656 163.230469 L 139.472656 163.597656 C 139.472656 163.742188 139.511719 163.890625 139.585938 164.039062 C 139.65625 167.488281 138.773438 170.980469 138.699219 174.582031 C 138.699219 177.226562 138.996094 180.164062 140.945312 182.082031 C 140.984375 182.113281 140.984375 182.113281 141.019531 182.152344 C 141.128906 182.335938 141.351562 182.480469 141.644531 182.449219 C 143.820312 182.082031 144.332031 179.398438 144.628906 177.082031 C 144.777344 176.859375 144.8125 176.601562 144.703125 176.347656 C 144.777344 175.796875 144.8125 175.316406 144.886719 174.878906 C 145.253906 172.304688 145.4375 169.695312 145.476562 167.121094 C 147.316406 171.976562 150.703125 176.382812 152.433594 181.308594 C 154.753906 188.03125 153.503906 194.902344 154.828125 201.738281 C 157.148438 214.265625 165.910156 224.960938 175.078125 233.300781 C 175.558594 233.738281 176.109375 233.554688 176.367188 233.15625 C 176.625 233.046875 176.808594 232.789062 176.808594 232.382812 C 176.882812 221.980469 181.484375 215 189.109375 208.460938 C 189.660156 208.644531 190.398438 208.351562 190.359375 207.617188 C 189.953125 202.730469 189.511719 197.328125 191.832031 192.84375 C 194.484375 187.882812 199.894531 185.859375 204.867188 183.949219 C 205.125 183.839844 205.199219 183.582031 205.199219 183.398438 C 205.566406 183.472656 205.972656 183.214844 205.933594 182.847656 C 205.859375 179.214844 205.640625 176.273438 207.628906 172.96875 C 209.46875 169.953125 212.339844 167.933594 215.214844 165.984375 C 215.691406 165.691406 215.289062 164.992188 214.84375 165.285156 C 209.394531 168.40625 201.074219 176.015625 204.792969 183.074219 L 204.757812 183.074219 C 199.710938 184.617188 194.152344 186.488281 191.097656 191.117188 C 187.855469 195.933594 188.152344 202.105469 188.519531 207.652344 C 188.519531 207.691406 188.519531 207.765625 188.554688 207.800781 C 180.859375 212.910156 174.710938 221.214844 174.96875 230.730469 C 172.171875 227.828125 169.410156 224.8125 166.90625 221.65625 C 170.109375 213.417969 176.183594 208.167969 182.847656 202.621094 C 182.996094 202.507812 183.03125 202.363281 182.996094 202.210938 C 183.070312 202.105469 183.105469 201.957031 183.105469 201.773438 C 182.628906 191.339844 187.230469 184.175781 196.140625 179.140625 C 196.546875 179.507812 197.355469 179.171875 197.429688 178.550781 C 197.722656 175.980469 197.980469 173.777344 199.527344 171.570312 C 200.925781 169.550781 202.953125 168.148438 205.050781 167.015625 C 205.125 166.976562 205.160156 166.9375 205.199219 166.90625 C 205.566406 167.046875 206.046875 166.9375 206.15625 166.464844 C 206.78125 163.15625 207.335938 159.882812 207.222656 156.542969 L 207.222656 156.503906 C 208.917969 155.914062 210.574219 155.21875 212.082031 154.445312 C 212.15625 158.085938 213.113281 162.015625 215.140625 164.992188 C 215.617188 165.691406 216.539062 165.066406 216.207031 164.367188 C 214.660156 160.769531 213.628906 157.644531 213.335938 153.75 C 217.128906 151.582031 220.183594 148.640625 222.320312 144.339844 C 222.46875 144.011719 222.355469 143.753906 222.136719 143.683594 C 222.285156 143.53125 222.394531 143.347656 222.429688 143.164062 C 222.6875 142.980469 222.871094 142.6875 222.796875 142.320312 C 221.582031 135.078125 225.816406 129.199219 227.511719 122.585938 C 227.546875 122.476562 227.621094 122.371094 227.621094 122.21875 C 227.695312 120.75 227.253906 119.980469 226.519531 118.726562 C 225.042969 116.269531 224.34375 113.699219 224.199219 110.828125 C 223.976562 105.652344 226.148438 101.019531 228.25 96.429688 C 228.320312 96.28125 228.320312 96.171875 228.285156 96.058594 C 228.691406 95.621094 228.726562 94.84375 228.027344 94.515625 " fill-opacity="1" fill-rule="nonzero"/></g></svg>